<svg id="Layer_1" data-name="Layer 1" xmlns="http://www.w3.org/2000/svg" viewBox="0 0 200 200">
  <g>
    <g class="brainyactz">
      <path d="M4.65,40.774a1.3314,1.3314,0,0,1,.11-1.88l2.5479-2.2669c2.703-2.4037,5.2634-2.6521,7.2764-.3869a3.99,3.99,0,0,1,1.0468,2.7645,1.3117,1.3117,0,0,0,1.3335,1.2776,4.1124,4.1124,0,0,1,3.2589,1.6727c2.3228,2.6112,1.6246,5.3578-1.0422,7.73l-2.6942,2.3961a1.3316,1.3316,0,0,1-1.88-.11Zm6.28,1.987.8765-.779c1.133-1.008,1.2972-2.331.5015-3.2261-.8614-.9684-1.9791-1.0861-3.1669-.03l-1.0047.8932Zm5.2305,5.8818,1.06-.943a2.4115,2.4115,0,0,0,.304-3.7047c-1.1214-1.26-2.55-1.1015-3.8655.069l-.8766.779Z"></path>
      <path d="M38.664,35.5712a1.3314,1.3314,0,0,1-1.4841-.0584L31.6314,31.459l-1.3752.8467,3.0746,4.9888a1.3315,1.3315,0,0,1-.435,1.8322l-.6063.3736a1.3316,1.3316,0,0,1-1.8322-.435L22.59,26.2979a1.3315,1.3315,0,0,1,.435-1.832l3.0306-1.868c3.4568-2.13,6.1283-1.4782,7.8733,1.3538a4.56,4.56,0,0,1,.6545,4.2816,1.3524,1.3524,0,0,0,.4228,1.6514l4.3421,3.0921a1.3316,1.3316,0,0,1-.0738,2.2182Zm-9.87-5.6391,1.4791-.912a2.15,2.15,0,0,0,.7568-3.34,2.1487,2.1487,0,0,0-3.3234-.8234l-1.4791.9112Z"></path>
      <path d="M47.42,29.0664,45.2244,13.7851a1.3316,1.3316,0,0,1,.8172-1.4231l2.0718-.841a1.3316,1.3316,0,0,1,1.5828.4578l8.9832,12.5244a1.3315,1.3315,0,0,1-.581,2.01l-.4405.1789a1.3316,1.3316,0,0,1-1.5909-.4688l-.9719-1.385a1.3315,1.3315,0,0,0-1.5906-.4689l-2.3872.9687a1.3317,1.3317,0,0,0-.8188,1.4127l.2377,1.7533a1.3314,1.3314,0,0,1-.8187,1.4126l-.4784.1943A1.3316,1.3316,0,0,1,47.42,29.0664Zm3.7372-6.9629h0a1.3315,1.3315,0,0,0,.59-1.9979L48.504,15.4775l-.0461.0184.8836,5.582A1.3316,1.3316,0,0,0,51.1575,22.1035Z"></path>
      <path d="M67.7754,22.1513,64.0584,7.6387a1.3315,1.3315,0,0,1,.9592-1.62l.6873-.1762a1.3315,1.3315,0,0,1,1.6205.9594L71.043,21.3142a1.3316,1.3316,0,0,1-.9593,1.62l-.6879.1763A1.3314,1.3314,0,0,1,67.7754,22.1513Z"></path>
      <path d="M81.194,19.1687,79.5006,4.2721a1.3316,1.3316,0,0,1,1.1726-1.4735L82.1615,2.63a1.3316,1.3316,0,0,1,1.2959.6442l5.4091,9.1274.0485-.0064L87.8828,3.32A1.3316,1.3316,0,0,1,89.0551,1.846l.4155-.0473a1.3315,1.3315,0,0,1,1.4738,1.1726l1.6934,14.8962a1.3316,1.3316,0,0,1-1.1723,1.4734l-1.03.1173a1.3315,1.3315,0,0,1-1.2939-.64L83.1673,8.8154l-.0485.0064,1.1368,9.9987a1.3315,1.3315,0,0,1-1.1722,1.4734l-.4156.0473A1.3315,1.3315,0,0,1,81.194,19.1687Z"></path>
      <path d="M109.5895,5.62,111,2.4011a1.3318,1.3318,0,0,1,1.26-.7965l.6206.019a1.3316,1.3316,0,0,1,1.1523,1.9224l-4.087,8.2439a1.3315,1.3315,0,0,0-.138.55l-.17,5.5157a1.3314,1.3314,0,0,1-1.3716,1.29l-.712-.0218a1.3314,1.3314,0,0,1-1.29-1.3719l.17-5.5149a1.3318,1.3318,0,0,0-.1038-.5581L102.7569,3.2a1.3315,1.3315,0,0,1,1.2684-1.848l.63.02a1.3314,1.3314,0,0,1,1.2032.8575l1.2666,3.33A1.3315,1.3315,0,0,0,109.5895,5.62Z"></path>
      <path d="M121.51,18.6306l6.5048-14.0125a1.3316,1.3316,0,0,1,1.4615-.7465l2.1979.4266a1.3316,1.3316,0,0,1,1.0765,1.2474l.6925,15.4092a1.3315,1.3315,0,0,1-1.5837,1.367l-.47-.0911a1.3315,1.3315,0,0,1-1.0772-1.2614l-.0583-1.6937a1.3317,1.3317,0,0,0-1.077-1.2614l-2.5315-.4914a1.3314,1.3314,0,0,0-1.4569.7368L124.43,19.86a1.3315,1.3315,0,0,1-1.4569.7367l-.5087-.0987A1.3316,1.3316,0,0,1,121.51,18.6306Zm6.9364-3.798.0016,0a1.3315,1.3315,0,0,0,1.5842-1.3525L129.84,7.8292l-.0479-.01-2.3078,5.1628A1.3315,1.3315,0,0,0,128.4464,14.8326Z"></path>
      <path d="M146.4048,21.1365c-.6682,1.8383-.0476,2.6357,1.2154,3.0957,1.2646.4593,2.2528.2456,2.92-1.5926l.4011-1.1033,3.17,1.153-.25.69c-1.4871,4.0891-4.1814,4.7752-7.26,3.6557s-4.7046-3.3749-3.2183-7.4648l2.1553-5.9282c1.4871-4.0906,4.1807-4.776,7.26-3.6565s4.7046,3.3742,3.2183,7.4648L156,17.4969l-3.1711-1.153.1667-.46c.6689-1.8383.0476-2.6364-1.2155-3.0957s-2.2527-.2464-2.9194,1.5919Z"></path>
      <path d="M177.2833,23.3346l-.155.28a1.3315,1.3315,0,0,1-1.8091.52l-1.1156-.6166a1.3316,1.3316,0,0,0-1.8094.5208l-5.8111,10.5063a1.3315,1.3315,0,0,1-1.81.5207l-.6213-.3437a1.3315,1.3315,0,0,1-.5207-1.81l5.8106-10.5064a1.3315,1.3315,0,0,0-.52-1.8094l-1.1145-.6168a1.3316,1.3316,0,0,1-.52-1.8094l.1546-.28a1.3315,1.3315,0,0,1,1.81-.5208l7.5118,4.1539A1.3317,1.3317,0,0,1,177.2833,23.3346Z"></path>
      <path d="M188.4663,29.3437l5.615,4.3767a1.3315,1.3315,0,0,1,.2317,1.8687l-.7108.9121a1.3327,1.3327,0,0,1-.5379.4105l-10.1152,4.2175a1.3315,1.3315,0,0,0-.3063,2.2791l2.5328,1.9747a1.3314,1.3314,0,0,1,.2315,1.8686l-.1972.2531a1.3315,1.3315,0,0,1-1.8688.2315l-6.27-4.8882a1.3316,1.3316,0,0,1-.2318-1.8685l.7249-.93a1.3326,1.3326,0,0,1,.539-.4111l10.0972-4.2a1.3315,1.3315,0,0,0,.3071-2.28l-1.8748-1.461a1.3316,1.3316,0,0,1-.2318-1.8689l.1971-.2529A1.3316,1.3316,0,0,1,188.4663,29.3437Z"></path>
    </g>
	<g class="key">
	    <path d="M138.5282,135.9186a12.5829,12.5829,0,0,0,0-25.158,12.2881,12.2881,0,0,0-11.3574,7.8407H57.7557v15.6511H68.4228v-6.2343H78.145v5.9063l10.0191,2.333v-8.2393h38.9853A12.2888,12.2888,0,0,0,138.5282,135.9186Zm0-21.9748a9.4011,9.4011,0,1,1-9.0849,9.3958A9.2549,9.2549,0,0,1,138.5282,113.9438Zm-53.5474,10.891v7.4125l-3.6526-.85v-6.5623H65.24v6.2344H60.9389v-9.2847h65.425a11.753,11.753,0,0,0-.0089,3.05Z"></path>
	    <ellipse cx="138.5284" cy="123.3399" rx="4.5211" ry="4.6529"></ellipse>
	</g>
	<g class="keyhole">
    	<path d="M88.8235,77.14,86.7507,87.5325h8.4684l-2.0755-10.41a5.2667,5.2667,0,0,0,3.354-4.8388,5.5419,5.5419,0,0,0-11.07,0A5.27,5.27,0,0,0,88.8235,77.14Z"></path>
	</g>
	<g class="brain">
    	<path d="M195.6846,113.4636a84.7868,84.7868,0,0,0-1.0725-10.3533c-.0062-.0645-.014-.1282-.0248-.1919a86.9613,86.9613,0,0,0-86.0727-72.8052c-27.49,0-52.2946,11.3752-68.2,31.2391-19.707,4.7243-32.39,18.8546-32.387,36.0715-.03.5495-.6093,13.5745,8.3886,23.062,5.9343,6.2552,14.5343,9.4269,25.562,9.4269h2.8693a16.9879,16.9879,0,0,0,4.4842,9.1859c3.1505,3.1871,7.5648,4.8028,13.12,4.8028a65.1118,65.1118,0,0,1,14.96,1.7c1.7284.3458,3.2936.7126,4.7981,1.1261a79.6186,79.6186,0,0,1,8.2456,2.7021c1.887.7415,3.5625,1.46,5.123,2.1971l.0038.0014.0055.0032a82.2231,82.2231,0,0,1,41.73,44.1578q.2588.6272.4756,1.2543a2.3879,2.3879,0,0,0,3.1413,1.4346,86.6287,86.6287,0,0,0,15.5-8.0707,2.3867,2.3867,0,0,0,.8688-2.96,87.6493,87.6493,0,0,0-17.7379-26.0005,33.6185,33.6185,0,0,0,6.4086.68c.4461,0,.757-.0133.9139-.0218a40.3959,40.3959,0,0,0,38.4162-27.707,30.4774,30.4774,0,0,0,10.4745-20.6008C195.6861,113.7021,195.6877,113.5591,195.6846,113.4636ZM182.1051,79.98c-6.0886,2.2691-21.0677,9.09-28.0358,23.1619-7.9056-5.1967-17.0662-4.5372-18.415-4.4065h-19.71c2.5568-4.3734,3.85-9.762,3.85-16.1033,0-23.2269,26.504-33.814,31.7855-35.6917A82.0593,82.0593,0,0,1,182.1051,79.98ZM19.8135,117.2335c-5.6841-5.9687-6.8495-13.9044-7.0726-17.6126h7.1705c-.0622,3.4824.4569,9.56,4.2479,13.9476,2.9065,3.3619,7.0892,5.067,12.4329,5.067H37.786a2.3879,2.3879,0,0,0,2.32-1.8263c.0265-.1088,2.7667-10.9516,13.465-13.5605a2.3882,2.3882,0,0,0,1.8216-2.32V87.4a2.3875,2.3875,0,0,0-2.3874-2.3875H44.7492A2.3876,2.3876,0,0,0,42.3618,87.4v4.2751a27.2882,27.2882,0,0,0-5.7695,4.2254V85.8086a2.338,2.338,0,0,0-.0249-.2469V79.58H61.0383V98.6153a2.3876,2.3876,0,0,0,2.3875,2.3874L91.7592,101c.0373.0023.188.0085.4321.0085,1.6584,0,7.6331-.3,11.9308-4.3924,2.9625-2.8211,4.4655-6.7488,4.4655-11.6744.0016-5.6087,1.1595-21.2909,6.4348-26.4418a2.387,2.387,0,0,0-1.2714-4.0621c-.8844-.15-21.8893-3.5-40.3932,9.9048a2.3869,2.3869,0,0,0-.987,1.9336V88.6188a2.3874,2.3874,0,0,0,4.7748,0V67.5137c12.0179-8.234,25.2932-8.9544,31.7824-8.7049-4.9567,8.95-5.1152,24.1764-5.1152,26.1325,0,3.5531-.9963,6.31-2.9594,8.1943-3.4225,3.2827-8.8036,3.1024-8.9777,3.0923H65.8132V62.0549c3.135-2.78,16.7787-13.6895,38.8187-14.7324a62.8878,62.8878,0,0,1,18.5817,1.6421,2.3878,2.3878,0,0,0,1.144-4.6365,66.5378,66.5378,0,0,0-20.06-1.7679c-26.88,1.27-41.9382,16.139-42.5661,16.7717a2.3838,2.3838,0,0,0-.6933,1.6818v3.4482h-5.77a2.3874,2.3874,0,0,0,0,4.7748h5.77v5.5683H34.18a2.3875,2.3875,0,0,0-2.3874,2.3874v6.9532H23.0387a2.3874,2.3874,0,0,0,0,4.7748h8.7787v13.3779a2.3034,2.3034,0,0,0,.0431.4277c.0135.0743.0358.1447.056.2165.0174.0607.0339.1211.0559.18a2.3618,2.3618,0,0,0,.1005.23c.0279.0567.0582.1115.09.1661.0344.0574.068.1146.1069.1687a2.4636,2.4636,0,0,0,1.3052.9679,2.5291,2.5291,0,0,0,2.7714-1.0289A22.5415,22.5415,0,0,1,45.6259,95.39a2.3861,2.3861,0,0,0,1.5108-2.22V89.7876h3.4816v9.3445c-9.3258,3.0946-13.238,11.0845-14.5732,14.7216-3.6619-.1-6.3679-1.2124-8.2595-3.3931-4.0676-4.687-2.9672-12.8043-2.9563-12.8813a2.388,2.388,0,0,0-2.3626-2.7332H12.8262C14.2877,78.02,29.2638,68.7156,42.1893,65.82a2.3812,2.3812,0,0,0,1.3569-.858C58.5173,45.85,82.1971,34.888,108.5146,34.888a82.6019,82.6019,0,0,1,37.67,9.0324,70.4983,70.4983,0,0,0-12.9675,7.2039c-11.906,8.4445-18.1978,19.34-18.1978,31.5081,0,7.7661-2.1744,13.76-6.4628,17.8123-6.8747,6.4993-17.0973,6.0043-17.3429,5.9942H65.6127c-8.3731,0-14.4364,2.3089-18.0206,6.8614A17.5219,17.5219,0,0,0,44.21,125.1379H41.8784C32.2324,125.1379,24.8091,122.4785,19.8135,117.2335ZM83.3627,142.121c-1.6025-.4406-3.2748-.8331-5.0934-1.1968a70.0947,70.0947,0,0,0-15.9177-1.7975c-4.2106,0-7.4715-1.1277-9.6911-3.3511a12.8814,12.8814,0,0,1-3.3588-8.2231c0-.0212-.0052-.0416-.0055-.0628-.0007-.0585-.01-.1173-.0154-.1762a2.3788,2.3788,0,0,0-.0383-.2938c-.0033-.0154-.0024-.0306-.006-.0461-.014-.0622-1.4128-6.2825,2.131-10.7488,2.6376-3.3255,7.4312-5.0111,14.2452-5.0111l25.4564-.0047c.5.0327,12.3224.6544,20.7313-7.2593.1514-.1425.2932-.2931.44-.4391h23.5379a2.3361,2.3361,0,0,0,.2751-.0164c.1-.0131,10.0889-1.0856,17.2767,5.0525a2.3845,2.3845,0,0,0,.2042.1732c.0278.0245.0566.0467.0843.0714,4.7562,4.2363,7.1685,10.8731,7.1685,19.7272v14.1854h-44.08c-.0278,0-.0618.0088-.0906.01a2.3861,2.3861,0,0,0-.4113.0439c-.0325.0063-.0622.0142-.0948.0218a2.3854,2.3854,0,0,0-.4374.15c-.025.0112-.0527.0143-.0772.0265l-.0605.0323-.0063.0027c-.7678.415-1.5185.7779-2.28,1.1a35.0758,35.0758,0,0,1-14.4753,3.069q-.7248,0-1.4429-.0358c-.0786-.0038-.157-.0083-.2354-.0131-1.5372-.7131-3.1746-1.4109-4.9974-2.1265A84.0436,84.0436,0,0,0,83.3627,142.121Zm65.9507,5.3577h3.4552v9.3356q-1.7045.288-3.4552.4135Zm6.3213,0H159.09v7.6646a35.7091,35.7091,0,0,1-3.4553,1.07Zm6.3214,0H165.41v4.618a35.5706,35.5706,0,0,1-3.4537,1.86Zm-28.15,0v7.2674a37.88,37.88,0,0,1-3.4552-1.6229v-5.6445Zm-6.3214,3.4942c-.4112-.365-.8091-.7215-1.1828-1.0586-1.0433-.9417-1.9474-1.7537-2.8412-2.4356h4.024Zm9.1875-3.4942h3.4552V156.69c-1.06-.2212-2.2194-.5162-3.4552-.9063Zm-31.386,3.941c.132-.0212.2609-.0538.3925-.0764.63-.1078,1.2557-.2276,1.8771-.3651.2663-.0589.53-.1262.7947-.1906.5151-.1252,1.0274-.2591,1.5363-.4048.2455-.07.491-.14.735-.215,5.624,4.2231,25.5862,20.2111,35.0189,40.8992-1.4289.72-2.8762,1.412-4.3537,2.0522A86.8784,86.8784,0,0,0,105.2863,151.42Zm22.1814,5.7859a82.9931,82.9931,0,0,1,24.5192,30.3174c-1.24.7709-2.5143,1.5-3.8043,2.2072-9.0954-19.8677-27.07-35.1157-34.3278-40.7185.4359-.1773.873-.351,1.3029-.5443.3124-.1314.6279-.2728.95-.422a46.2177,46.2177,0,0,0,10.5986,8.5394C126.9567,156.79,127.1992,156.9921,127.4677,157.2056Zm15.526-.0446v-9.6823h3.4536v9.8628A22.8977,22.8977,0,0,1,142.9937,157.161Zm25.2823-7.01v-2.6719h3.1646A35.5252,35.5252,0,0,1,168.276,150.1506Zm21.5995-31.3035a1.3888,1.3888,0,1,0-.9379,2.5572,25.6394,25.6394,0,0,1-7.3054,9.759,2.3722,2.3722,0,0,0-.7647,1.1315,35.98,35.98,0,0,1-5.2427,10.4092H165.5622V128.5185a37.1867,37.1867,0,0,0-2.6852-14.74,1.38,1.38,0,0,0-.3486-.7676,23.9729,23.9729,0,0,0-4.6562-6.7606,30.9578,30.9578,0,0,1,2.2833-4.1443,1.3906,1.3906,0,1,0,1.3456-1.7338,1.3705,1.3705,0,0,0-.1561.0157,44.9045,44.9045,0,0,1,13.1456-11.43,1.377,1.377,0,0,0-.1558.6275,1.3927,1.3927,0,1,0,1.47-1.3848,60.4383,60.4383,0,0,1,8.3373-3.8672,82.5222,82.5222,0,0,1,3.7891,10.6907,1.3705,1.3705,0,0,0,.4954,1.8326q.4442,1.7463.8173,3.5239c-.03-.0019-.0581-.0089-.0884-.0089a1.3927,1.3927,0,1,0,.595,2.6472c.032.1822.0734.36.1042.5431q.007.0958.0233.1912c.1915,1.14.3491,2.2856.491,3.43a1.3912,1.3912,0,1,0,.1249,1.0346c.1982,1.7889.3408,3.572.4146,5.3257A25.3217,25.3217,0,0,1,189.8754,118.8471Zm-19.8687,19.455a1.3927,1.3927,0,1,1-1.3926-1.3926A1.3927,1.3927,0,0,1,170.0068,138.3021Zm7.1132,0a1.3926,1.3926,0,1,1-1.3927-1.3926A1.3926,1.3926,0,0,1,177.12,138.3021Zm-7.1132-6.0895a1.3927,1.3927,0,1,1-1.3926-1.3927A1.3927,1.3927,0,0,1,170.0068,132.2126Zm7.1132,0a1.3926,1.3926,0,1,1-1.3927-1.3927A1.3927,1.3927,0,0,1,177.12,132.2126Zm-7.1132-6.0895a1.3927,1.3927,0,1,1-1.3926-1.3927A1.3927,1.3927,0,0,1,170.0068,126.1232Zm7.1132,0a1.3926,1.3926,0,1,1-1.3927-1.3927A1.3926,1.3926,0,0,1,177.12,126.1232Zm7.1132,0A1.3926,1.3926,0,1,1,182.84,124.73,1.3926,1.3926,0,0,1,184.2332,126.1232Zm-14.2264-6.09a1.3927,1.3927,0,1,1-1.3926-1.3927A1.3927,1.3927,0,0,1,170.0068,120.0336Zm7.1132,0a1.3926,1.3926,0,1,1-1.3927-1.3927A1.3927,1.3927,0,0,1,177.12,120.0336Zm7.1132,0a1.3926,1.3926,0,1,1-1.3927-1.3927A1.3927,1.3927,0,0,1,184.2332,120.0336Zm-14.2264-6.09a1.3927,1.3927,0,1,1-1.3926-1.3926A1.3927,1.3927,0,0,1,170.0068,113.944Zm7.1132,0a1.3926,1.3926,0,1,1-1.3927-1.3926A1.3926,1.3926,0,0,1,177.12,113.944Zm7.1132,0a1.3926,1.3926,0,1,1-1.3927-1.3926A1.3926,1.3926,0,0,1,184.2332,113.944Zm-21.34-6.0895a1.3926,1.3926,0,1,1-1.3926-1.3927A1.3927,1.3927,0,0,1,162.8936,107.8545Zm7.1132,0a1.3927,1.3927,0,1,1-1.3926-1.3927A1.3927,1.3927,0,0,1,170.0068,107.8545Zm7.1132,0a1.3926,1.3926,0,1,1-1.3927-1.3927A1.3927,1.3927,0,0,1,177.12,107.8545Zm7.1132,0a1.3926,1.3926,0,1,1-1.3927-1.3927A1.3927,1.3927,0,0,1,184.2332,107.8545Zm-14.2264-6.09a1.3927,1.3927,0,1,1-1.3926-1.3927A1.3927,1.3927,0,0,1,170.0068,101.765Zm7.1132,0a1.3926,1.3926,0,1,1-1.3927-1.3927A1.3927,1.3927,0,0,1,177.12,101.765Zm7.1132,0a1.3926,1.3926,0,1,1-1.3927-1.3927A1.3927,1.3927,0,0,1,184.2332,101.765Zm-14.2264-6.0895a1.3927,1.3927,0,1,1-1.3926-1.3927A1.3926,1.3926,0,0,1,170.0068,95.6755Zm7.1132,0a1.3926,1.3926,0,1,1-1.3927-1.3927A1.3926,1.3926,0,0,1,177.12,95.6755Zm7.1132,0a1.3926,1.3926,0,1,1-1.3927-1.3927A1.3926,1.3926,0,0,1,184.2332,95.6755Zm6.3146,18.2685a1.3927,1.3927,0,1,1-1.3926-1.3926A1.3927,1.3927,0,0,1,190.5478,113.944Zm-6.3146-24.3581a1.3926,1.3926,0,1,1-1.3927-1.3926A1.3926,1.3926,0,0,1,184.2332,89.5859ZM136.1288,61.21H138.73l.0014,5.6917c.1461,3.9068,3.9137,5.5707,4.0116,5.61.4306.2161,1.2917.8665,1.3274,1.3942.0249.3832-.4212.9147-1.2232,1.458-4.2573,2.8793-4.178,6.3757-4.1174,7.0588V87.82h-2.6014v4.3232H158.271V87.82h-2.61V82.4233c.0606-.6831.14-4.18-4.1174-7.0588-.8005-.5417-1.2465-1.0725-1.2232-1.4557.0311-.5051.8129-1.1338,1.2652-1.3677.16-.0684,3.9277-1.7323,4.0754-5.6834V61.21h2.61V57.7581H136.1288Zm17.1575,20.98-.0019.981-.2088-.4594s-4.0036,3.5416-7.6222,2.6947a4.84,4.84,0,0,0-4.34.8772l-.0069-4.0765c-.0109-.1057-.26-2.6074,3.0775-4.8658,1.5916-1.0756,2.3548-2.284,2.2677-3.592-.001-.0161-.0076-.03-.0089-.0458h1.32l.2261-.2108c-.0137.087-.0438.1662-.05.2566-.0871,1.308.6761,2.5164,2.2677,3.592C153.5443,79.6,153.2956,82.1016,153.2863,82.19Zm-.0109-15.3768a3.76,3.76,0,0,1-1.33,2.6557h-9.5082a3.71,3.71,0,0,1-1.32-2.6114V61.21h12.1565Zm-6.8211,9.47a.8084.8084,0,1,1,.8083.8084A.8083.8083,0,0,1,146.4543,76.283Zm1.27,3.4261a.8084.8084,0,1,1,.8085-.8084A.8085.8085,0,0,1,147.7246,79.7092Zm-2.1942-.1924a.5775.5775,0,1,1,.5775-.5775A.5775.5775,0,0,1,145.53,79.5167Zm1.8093,1.0394a.5775.5775,0,1,1-.5775-.5775A.5775.5775,0,0,1,147.34,80.5561Zm-.8469,2.0018a.5774.5774,0,1,1-.5775-.5775A.5774.5774,0,0,1,146.4928,82.5579Zm3.0027.4619a.8085.8085,0,1,1-.8085-.8084A.8084.8084,0,0,1,149.4955,83.02Z"></path>
	</g>
  </g>
</svg>
